<svg width="16" height="16" viewBox="0 0 16 16" fill="none" xmlns="http://www.w3.org/2000/svg">
<path d="M2.66675 11.9872V6.4717C2.66675 4.04945 2.66675 2.83833 3.44779 2.08584C4.22885 1.33334 5.48592 1.33334 8.00008 1.33334C10.5142 1.33334 11.7713 1.33334 12.5523 2.08584C13.3334 2.83833 13.3334 4.04945 13.3334 6.4717V11.9872C13.3334 13.5245 13.3334 14.2931 12.8182 14.5682C11.8204 15.1009 9.94888 13.3235 9.06008 12.7883C8.54462 12.4779 8.28688 12.3227 8.00008 12.3227C7.71328 12.3227 7.45555 12.4779 6.94008 12.7883C6.05128 13.3235 4.17973 15.1009 3.18198 14.5682C2.66675 14.2931 2.66675 13.5245 2.66675 11.9872Z" stroke="#02000E" stroke-width="1.5" stroke-linecap="round" stroke-linejoin="round"/>
<path d="M2.66675 4.66666H13.3334" stroke="#02000E" stroke-width="1.5"/>
</svg>
