<svg width="24" height="25" viewBox="0 0 24 25" fill="none" xmlns="http://www.w3.org/2000/svg">
<path d="M9.75498 2.51147C9.67347 2.22624 9.42856 2.06325 9.1429 2.14475C9.06099 2.14475 8.4489 2.30773 7.83682 2.7967C7.22433 3.28566 6.53074 4.14135 6.44884 5.649C6.44884 5.93423 6.653 6.17871 6.97941 6.17871C7.26508 6.17871 7.46925 5.97498 7.46925 5.68975C7.55116 3.57089 9.30591 3.12268 9.38781 3.12268C9.63273 3.04118 9.79573 2.7967 9.75498 2.51147Z" fill="white"/>
<path d="M17.347 20.9701C17.0613 20.9701 16.8164 20.7256 16.8164 20.4404C16.8164 20.1551 17.0613 19.9514 17.347 19.9514C17.6326 19.9514 17.8775 20.1959 17.8775 20.4404C17.8775 20.7256 17.6326 20.9701 17.347 20.9701ZM20.4489 6.34187C20.2855 4.30451 18.5304 2.67463 16.4081 2.67463C15.9997 2.67463 15.5918 2.71538 15.2242 2.83762C14.2042 1.16699 12.3264 0.0668124 10.2448 0.0668124C6.8572 0.0668124 4.20389 2.87836 4.4488 6.13814C1.95931 6.38262 0 8.46072 0 10.9463C0 13.5949 2.04082 15.7545 4.65297 15.836C4.65297 15.836 4.53071 15.836 8.6531 15.836V19.7069L8.00027 19.055C7.7961 18.8512 7.46928 18.8512 7.26512 19.055C7.06096 19.2587 7.06096 19.5847 7.26512 19.7884C8.89802 21.4183 8.81651 21.3368 8.89802 21.3776C8.93877 21.3776 8.89802 21.3776 8.93877 21.4183C8.97952 21.4183 8.93877 21.4183 8.97952 21.4183C9.02027 21.4183 9.02027 21.4183 9.02027 21.4183C9.06102 21.4183 9.06103 21.4183 9.06103 21.4183C9.06103 21.4183 9.10218 21.4183 9.14293 21.4183C9.18369 21.4183 9.22444 21.4183 9.22444 21.4183C9.26519 21.4183 9.26519 21.4183 9.26519 21.4183C9.30594 21.4183 9.26519 21.4183 9.30594 21.4183C9.34669 21.4183 9.30594 21.4183 9.34669 21.4183C9.38785 21.4183 9.38785 21.4183 9.38785 21.3776C9.46935 21.3368 9.38785 21.3776 11.0203 19.7884C11.2245 19.5847 11.2245 19.2587 11.0203 19.055C10.8162 18.8512 10.4898 18.8512 10.2856 19.055L9.63276 19.7069V15.347C9.63276 15.0618 9.38785 14.8173 9.14293 14.8173H4.65297C2.61255 14.7358 0.979654 13.0651 0.979654 10.9463C0.979654 8.82745 2.73481 7.07532 4.93864 7.11607C5.26546 7.11607 5.51037 6.83084 5.46962 6.50486C4.97979 3.61181 7.26512 1.04474 10.2041 1.04474C12.0408 1.04474 13.6732 2.06342 14.4899 3.65256C14.6122 3.89704 14.8978 3.97854 15.1427 3.89704C15.5511 3.73405 15.959 3.65256 16.3673 3.65256C17.8775 3.65256 19.1429 4.75273 19.347 6.17888C18.6938 6.21963 17.5919 6.46411 16.7349 7.44204C16.5307 7.64578 16.5715 7.97176 16.7756 8.17549C16.9794 8.37923 17.3062 8.33848 17.51 8.13474C18.3262 7.23831 19.4285 7.19756 19.755 7.23831C19.7957 7.23831 19.7957 7.23831 19.8369 7.23831C21.6324 7.60503 22.9796 9.15342 22.9796 10.987C22.9796 13.1466 21.1837 14.858 19.061 14.858C19.0202 14.858 17.3877 14.858 17.3877 14.858C17.1021 14.858 16.8571 15.1025 16.8571 15.347V19.0142C16.245 19.218 15.8367 19.7884 15.8367 20.4404C15.8367 21.2961 16.5307 21.9888 17.347 21.9888C18.204 21.9888 18.898 21.2961 18.898 20.4404C18.898 19.7884 18.4896 19.218 17.8775 19.0142V15.8767H19.061C21.755 15.8767 24 13.7171 24 10.987C24 8.82745 22.5305 6.91233 20.4489 6.34187Z" fill="white"/>
<path d="M11.3471 13.0654C11.143 13.2691 11.143 13.5951 11.3471 13.7989C11.5509 14.0026 11.8773 14.0026 12.0815 13.7989C12.6528 13.2284 13.5509 13.2284 14.1223 13.7989C14.3264 14.0026 14.6529 14.0026 14.857 13.7989C15.0612 13.5951 15.0612 13.2691 14.857 13.0654C13.8778 12.0875 12.3264 12.0875 11.3471 13.0654Z" fill="white"/>
<path d="M16.2039 12.3726C16.408 12.1689 16.408 11.8429 16.2039 11.6391C14.4899 9.92776 11.6736 9.92776 9.95915 11.6391C9.75499 11.8429 9.75499 12.1689 9.95915 12.3726C10.1633 12.5763 10.4897 12.5763 10.6939 12.3726C12 11.0687 14.1635 11.0687 15.5099 12.3726C15.6733 12.5763 15.9997 12.5763 16.2039 12.3726Z" fill="white"/>
<path d="M9.30593 11.0279C11.3879 8.94976 14.7755 8.94976 16.8571 11.0279C17.0613 11.2316 17.3877 11.2316 17.5919 11.0279C17.7956 10.8241 17.7956 10.4981 17.5919 10.2944C15.102 7.80884 11.0615 7.80884 8.57159 10.2944C8.36743 10.4981 8.36743 10.8241 8.57159 11.0279C8.77535 11.1909 9.10217 11.1909 9.30593 11.0279Z" fill="white"/>
<path d="M2.57133 20.4403C2.28567 20.4403 2.04075 20.1958 2.04075 19.9513C2.04075 19.6661 2.28567 19.4216 2.57133 19.4216C2.8574 19.4216 3.10191 19.6661 3.10191 19.9513C3.06116 20.2366 2.8574 20.4403 2.57133 20.4403ZM2.57133 18.4029C1.71433 18.4029 1.02034 19.0957 1.02034 19.9513C1.02034 20.807 1.71433 21.459 2.57133 21.459C3.42874 21.459 4.08157 20.7663 4.08157 19.9513C4.08157 19.0957 3.38758 18.4029 2.57133 18.4029Z" fill="white"/>
<path d="M22.449 2.63403C22.7347 2.63403 22.9796 2.87851 22.9796 3.16374C22.9796 3.44897 22.7347 3.69346 22.449 3.69346C22.1634 3.69346 21.9184 3.44897 21.9184 3.16374C21.9592 2.83777 22.1634 2.63403 22.449 2.63403ZM22.449 4.67139C23.306 4.67139 23.9589 3.97869 23.9589 3.123C23.9589 2.26731 23.2653 1.5746 22.449 1.5746C21.5916 1.5746 20.8976 2.26731 20.8976 3.123C20.9388 3.97869 21.6324 4.67139 22.449 4.67139Z" fill="white"/>
<path d="M22.9796 16.8952H19.9183C19.6327 16.8952 19.3877 17.1396 19.3877 17.4249C19.3877 17.7101 19.6327 17.9546 19.9183 17.9546H22.9796C23.2652 17.9546 23.469 17.7101 23.469 17.4249C23.469 17.1396 23.2652 16.8952 22.9796 16.8952Z" fill="white"/>
<path d="M22.9796 18.403H19.9183C19.6327 18.403 19.3877 18.6475 19.3877 18.9327C19.3877 19.2179 19.6327 19.4624 19.9183 19.4624H22.9796C23.2652 19.4624 23.469 19.2179 23.469 18.9327C23.469 18.6475 23.2652 18.403 22.9796 18.403Z" fill="white"/>
<path d="M13.2653 15.3473C12.9797 15.3473 12.7348 15.5918 12.7348 15.877C12.7348 16.1623 12.9797 16.4067 13.2653 16.4067C13.551 16.4067 13.7959 16.1623 13.7959 15.877C13.7959 15.5918 13.551 15.3473 13.2653 15.3473Z" fill="white"/>
<path d="M13.2653 16.8952C12.9797 16.8952 12.7348 17.1396 12.7348 17.4249C12.7348 17.7101 12.9797 17.9546 13.2653 17.9546C13.551 17.9546 13.7959 17.7101 13.7959 17.4249C13.7959 17.1396 13.551 16.8952 13.2653 16.8952Z" fill="white"/>
<path d="M13.2653 18.403C12.9797 18.403 12.7348 18.6475 12.7348 18.9327C12.7348 19.2179 12.9797 19.4624 13.2653 19.4624C13.551 19.4624 13.7959 19.2179 13.7959 18.9327C13.7959 18.6475 13.551 18.403 13.2653 18.403Z" fill="white"/>
<path d="M13.2653 19.9515C12.9797 19.9515 12.7348 20.196 12.7348 20.4405C12.7348 20.7257 12.9797 20.9702 13.2653 20.9702C13.551 20.9702 13.7959 20.7257 13.7959 20.4405C13.7959 20.1553 13.551 19.9515 13.2653 19.9515Z" fill="white"/>
<path d="M13.2653 21.4591C12.9797 21.4591 12.7348 21.7036 12.7348 21.9888C12.7348 22.2741 12.9797 22.5186 13.2653 22.5186C13.551 22.5186 13.7959 22.2741 13.7959 21.9888C13.7959 21.7036 13.551 21.4591 13.2653 21.4591Z" fill="white"/>
<path d="M13.2653 23.0075C12.9797 23.0075 12.7348 23.252 12.7348 23.5372C12.7348 23.8224 12.9797 24.0669 13.2653 24.0669C13.551 24.0669 13.7959 23.8224 13.7959 23.5372C13.7959 23.2112 13.551 23.0075 13.2653 23.0075Z" fill="white"/>
</svg>
