<svg width="24" height="25" viewBox="0 0 24 25" fill="none" xmlns="http://www.w3.org/2000/svg">
<path d="M5.90834 12.6269V13.0669C5.90834 13.3469 6.15283 13.5869 6.43801 13.5869C6.7232 13.5869 6.96771 13.3469 6.96771 13.0669V12.6269C7.82366 12.8269 8.51606 13.4669 8.6792 14.3069H8.19019C7.90501 14.3069 7.66012 14.5469 7.66012 14.8269C7.66012 15.1069 7.90501 15.3469 8.19019 15.3469H8.63811C8.43429 16.1869 7.78256 16.8669 6.92702 17.0269V16.5869C6.92702 16.3069 6.68252 16.0669 6.39734 16.0669C6.11216 16.0669 5.86766 16.3069 5.86766 16.5869V17.0269C5.01171 16.8269 4.31889 16.1869 4.15616 15.3469H4.60408C4.88926 15.3469 5.13417 15.1069 5.13417 14.8269C5.13417 14.5469 4.88926 14.3069 4.60408 14.3069H4.15616C4.35997 13.4669 5.05279 12.8269 5.90834 12.6269ZM3.0968 14.8269C3.0968 16.6269 4.5638 18.0669 6.39734 18.0669C8.23088 18.0669 9.69788 16.6269 9.69788 14.8269C9.69788 13.0269 8.23088 11.5869 6.39734 11.5869C4.5638 11.5869 3.0968 13.0269 3.0968 14.8269Z" fill="white"/>
<path d="M8.72001 9.06645C9.01244 9.06645 9.24968 9.29925 9.24968 9.58645C9.24968 9.87365 9.01244 10.1064 8.72001 10.1064C8.42757 10.1064 8.19031 9.87365 8.19031 9.58645C8.19031 9.29925 8.42757 9.06645 8.72001 9.06645Z" fill="white"/>
<path d="M20.414 5.54643C20.7068 5.54643 20.944 5.77923 20.944 6.06643C20.944 6.35363 20.7068 6.58643 20.414 6.58643C20.1215 6.58643 19.8843 6.35363 19.8843 6.06643C19.8843 5.77923 20.1215 5.54643 20.414 5.54643Z" fill="white"/>
<path d="M14.3022 7.06693C14.5946 7.06693 14.8319 7.29973 14.8319 7.58693C14.8319 7.87413 14.5946 8.10693 14.3022 8.10693C14.0094 8.10693 13.7721 7.87413 13.7721 7.58693C13.7721 7.29973 14.0094 7.06693 14.3022 7.06693Z" fill="white"/>
<path d="M17.8881 10.0669C18.1802 10.0669 18.4174 10.2997 18.4174 10.5869C18.4174 10.8741 18.1802 11.1069 17.8881 11.1069C17.5953 11.1069 17.358 10.8741 17.358 10.5869C17.358 10.2997 17.5953 10.0669 17.8881 10.0669Z" fill="white"/>
<path d="M14.8319 18.5469C15.1244 18.5469 15.3612 18.7797 15.3612 19.0669C15.3612 19.3541 15.1244 19.5869 14.8319 19.5869C14.5391 19.5869 14.3022 19.3541 14.3022 19.0669C14.3022 18.7797 14.5391 18.5469 14.8319 18.5469Z" fill="white"/>
<path d="M7.17101 9.06645C7.46384 9.06645 7.7011 9.29925 7.7011 9.58645C7.7011 9.87365 7.46384 10.1064 7.17101 10.1064C6.87898 10.1064 6.64172 9.87365 6.64172 9.58645C6.64172 9.29925 6.87898 9.06645 7.17101 9.06645Z" fill="white"/>
<path d="M5.66396 9.06645C5.95639 9.06645 6.19363 9.29925 6.19363 9.58645C6.19363 9.87365 5.95639 10.1064 5.66396 10.1064C5.37152 10.1064 5.13428 9.87365 5.13428 9.58645C5.13428 9.29925 5.37152 9.06645 5.66396 9.06645Z" fill="white"/>
<path d="M4.1152 9.06645C4.40804 9.06645 4.64529 9.29925 4.64529 9.58645C4.64529 9.87365 4.40804 10.1064 4.1152 10.1064C3.82317 10.1064 3.58594 9.87365 3.58594 9.58645C3.58594 9.29925 3.82317 9.06645 4.1152 9.06645Z" fill="white"/>
<path d="M8.72001 18.5469C9.01244 18.5469 9.24968 18.7797 9.24968 19.0669C9.24968 19.3541 9.01244 19.5869 8.72001 19.5869C8.42757 19.5869 8.19031 19.3541 8.19031 19.0669C8.19031 18.7797 8.42757 18.5469 8.72001 18.5469Z" fill="white"/>
<path d="M7.17101 18.5469C7.46384 18.5469 7.7011 18.7797 7.7011 19.0669C7.7011 19.3541 7.46384 19.5869 7.17101 19.5869C6.87898 19.5869 6.64172 19.3541 6.64172 19.0669C6.64172 18.7797 6.87898 18.5469 7.17101 18.5469Z" fill="white"/>
<path d="M5.66396 18.5469C5.95639 18.5469 6.19363 18.7797 6.19363 19.0669C6.19363 19.3541 5.95639 19.5869 5.66396 19.5869C5.37152 19.5869 5.13428 19.3541 5.13428 19.0669C5.13428 18.7797 5.37152 18.5469 5.66396 18.5469Z" fill="white"/>
<path d="M4.1152 18.5469C4.40804 18.5469 4.64529 18.7797 4.64529 19.0669C4.64529 19.3541 4.40804 19.5869 4.1152 19.5869C3.82317 19.5869 3.58594 19.3541 3.58594 19.0669C3.58594 18.7797 3.82317 18.5469 4.1152 18.5469Z" fill="white"/>
<path d="M1.58923 2.58643H3.6266V3.58643H1.58923V2.58643Z" fill="white"/>
<path d="M4.11523 2.58643H6.15301V3.58643H4.11523V2.58643Z" fill="white"/>
<path d="M6.6825 2.58643H8.71986V3.58643H6.6825V2.58643Z" fill="white"/>
<path d="M9.20898 2.58643H11.2463V3.58643H9.20898V2.58643Z" fill="white"/>
<path d="M1.58923 4.06689H3.6266V5.06689H1.58923V4.06689Z" fill="white"/>
<path d="M4.11523 4.06689H6.15301V5.06689H4.11523V4.06689Z" fill="white"/>
<path d="M6.6825 4.06689H8.71986V5.06689H6.6825V4.06689Z" fill="white"/>
<path d="M9.20898 4.06689H11.2463V5.06689H9.20898V4.06689Z" fill="white"/>
<path d="M1.58923 5.58643H3.6266V6.58643H1.58923V5.58643Z" fill="white"/>
<path d="M4.11523 5.58643H6.15301V6.58643H4.11523V5.58643Z" fill="white"/>
<path d="M6.6825 5.58643H8.71986V6.58643H6.6825V5.58643Z" fill="white"/>
<path d="M9.20898 5.58643H11.2463V6.58643H9.20898V5.58643Z" fill="white"/>
<path d="M1.58923 7.06689H3.6266V8.06689H1.58923V7.06689Z" fill="white"/>
<path d="M4.11523 7.06689H6.15301V8.06689H4.11523V7.06689Z" fill="white"/>
<path d="M6.6825 7.06689H8.71986V8.06689H6.6825V7.06689Z" fill="white"/>
<path d="M9.20898 7.06689H11.2463V8.06689H9.20898V7.06689Z" fill="white"/>
<path d="M2.07812 9.06689H3.09681V12.0669H2.07812V9.06689Z" fill="white"/>
<path d="M9.73828 9.06689H10.7574V12.0669H9.73828V9.06689Z" fill="white"/>
<path d="M2.07812 18.0669H3.09681V19.5869H2.07812V18.0669Z" fill="white"/>
<path d="M9.73828 18.0669H10.7574V19.5869H9.73828V18.0669Z" fill="white"/>
<path d="M11.7758 17.8269C11.7758 20.7069 9.37152 23.0669 6.43793 23.0669C3.50434 23.0669 1.10003 20.7069 1.10003 17.8269V1.0669H11.8165V17.8269H11.7758ZM23.4699 0.0668951C22.2072 0.0668951 1.79286 0.0668951 0.529678 0.0668951C0.244093 0.0668951 0 0.306895 0 0.586895V17.8269C0.0406828 21.2669 2.8929 24.0669 6.39726 24.0669C9.90162 24.0669 12.7538 21.2669 12.7538 17.8269V1.0669H22.9403V2.5869H14.7908C14.5056 2.5869 14.2611 2.8269 14.2611 3.10689C14.2611 3.38689 14.5056 3.62689 14.7908 3.62689H22.9403V18.6269H17.3578C17.0727 18.6269 16.8282 18.8669 16.8282 19.1469C16.8282 19.4269 17.0727 19.6669 17.3578 19.6669H23.4699C23.7551 19.6669 24 19.4269 24 19.1469V0.586895C24 0.306895 23.7551 0.0668951 23.4699 0.0668951Z" fill="white"/>
<path d="M21.433 22.0669C21.1478 22.0669 20.903 21.8269 20.903 21.5469C20.903 21.2669 21.1478 21.0269 21.433 21.0269C21.7182 21.0269 21.9623 21.2669 21.9623 21.5469C21.9623 21.8269 21.7182 22.0669 21.433 22.0669ZM21.433 20.0669C20.5771 20.0669 19.8843 20.7469 19.8843 21.5869C19.8843 22.4269 20.5771 23.1069 21.433 23.1069C22.2886 23.1069 22.981 22.4269 22.981 21.5869C22.981 20.7469 22.2886 20.0669 21.433 20.0669Z" fill="white"/>
<path d="M14.5464 22.5869C14.4243 22.5869 14.3023 22.4669 14.3023 22.3469C14.3023 22.2269 14.4243 22.1069 14.5464 22.1069C14.6688 22.1069 14.7909 22.2269 14.7909 22.3469C14.832 22.4669 14.7095 22.5869 14.5464 22.5869ZM14.5464 21.0669C13.8536 21.0669 13.2832 21.6269 13.2832 22.3069C13.2832 22.9869 13.8536 23.5469 14.5464 23.5469C15.2392 23.5469 15.81 22.9869 15.81 22.3069C15.8502 21.6269 15.2392 21.0669 14.5464 21.0669Z" fill="white"/>
</svg>
