<svg width="24" height="25" viewBox="0 0 24 25" fill="none" xmlns="http://www.w3.org/2000/svg">
<path d="M10.951 12.6819C10.951 12.4042 10.7094 12.1662 10.4276 12.1662C10.1458 12.1662 9.94446 12.4042 9.94446 12.6819V19.4257C9.94446 19.7034 10.186 19.9414 10.4677 19.9414C10.7498 19.9414 10.9914 19.7034 10.9914 19.4257V12.6819H10.951Z" fill="white"/>
<path d="M14.4942 4.54939C14.212 4.54939 13.9705 4.78741 13.9705 5.0651V12.0072C13.9705 12.2849 14.212 12.5229 14.4942 12.5229C14.776 12.5229 15.0176 12.2849 15.0176 12.0072V5.02543C14.9774 4.74774 14.7358 4.54939 14.4942 4.54939Z" fill="white"/>
<path d="M21.5395 5.73975H22.546C22.8282 5.73975 23.0698 5.50173 23.0698 5.22404C23.0698 4.94636 22.8282 4.70834 22.546 4.70834H21.5395C21.2577 4.70834 21.0161 4.94636 21.0161 5.22404C21.0161 5.50173 21.2577 5.73975 21.5395 5.73975Z" fill="white"/>
<path d="M21.5395 7.20752H22.546C22.8282 7.20752 23.0698 6.9695 23.0698 6.69182C23.0698 6.41413 22.8282 6.17611 22.546 6.17611H21.5395C21.2577 6.17611 21.0161 6.41413 21.0161 6.69182C21.0161 6.9695 21.2577 7.20752 21.5395 7.20752Z" fill="white"/>
<path d="M21.5395 8.71484H22.546C22.8282 8.71484 23.0698 8.47683 23.0698 8.19914C23.0698 7.92146 22.8282 7.68344 22.546 7.68344H21.5395C21.2577 7.68344 21.0161 7.92146 21.0161 8.19914C21.0161 8.47683 21.2577 8.71484 21.5395 8.71484Z" fill="white"/>
<path d="M21.5395 10.1826H22.546C22.8282 10.1826 23.0698 9.9446 23.0698 9.66691C23.0698 9.38923 22.8282 9.15121 22.546 9.15121H21.5395C21.2577 9.15121 21.0161 9.38923 21.0161 9.66691C21.0161 9.9446 21.2577 10.1826 21.5395 10.1826Z" fill="white"/>
<path d="M10.4677 20.576C10.7569 20.576 10.9914 20.8069 10.9914 21.0917C10.9914 21.3765 10.7569 21.6074 10.4677 21.6074C10.1789 21.6074 9.94446 21.3765 9.94446 21.0917C9.94446 20.8069 10.1789 20.576 10.4677 20.576Z" fill="white"/>
<path d="M14.4942 13.1576C14.7832 13.1576 15.0176 13.3884 15.0176 13.6733C15.0176 13.9581 14.7832 14.189 14.4942 14.189C14.2049 14.189 13.9705 13.9581 13.9705 13.6733C13.9705 13.3884 14.2049 13.1576 14.4942 13.1576Z" fill="white"/>
<path d="M2.89885 18.5926C3.18784 18.5926 3.4223 18.8235 3.4223 19.1083C3.4223 19.3931 3.18784 19.624 2.89885 19.624C2.60967 19.624 2.37537 19.3931 2.37537 19.1083C2.37537 18.8235 2.60967 18.5926 2.89885 18.5926Z" fill="white"/>
<path d="M14.4942 22.0833C14.7832 22.0833 15.0176 22.3142 15.0176 22.599C15.0176 22.8839 14.7832 23.1147 14.4942 23.1147C14.2049 23.1147 13.9705 22.8839 13.9705 22.599C13.9705 22.3142 14.2049 22.0833 14.4942 22.0833Z" fill="white"/>
<path d="M1.8921 11.1742C2.18125 11.1742 2.41571 11.405 2.41571 11.6899C2.41571 11.9747 2.18125 12.2056 1.8921 12.2056C1.60324 12.2056 1.36877 11.9747 1.36877 11.6899C1.36877 11.405 1.60324 11.1742 1.8921 11.1742Z" fill="white"/>
<path d="M10.9509 1.25668C11.2401 1.25668 11.4744 1.48756 11.4744 1.77238C11.4744 2.05721 11.2401 2.28809 10.9509 2.28809C10.6619 2.28809 10.4276 2.05721 10.4276 1.77238C10.4276 1.48756 10.6619 1.25668 10.9509 1.25668Z" fill="white"/>
<path d="M14.4942 14.6253C14.7832 14.6253 15.0176 14.8562 15.0176 15.141C15.0176 15.4259 14.7832 15.6567 14.4942 15.6567C14.2049 15.6567 13.9705 15.4259 13.9705 15.141C13.9705 14.8562 14.2049 14.6253 14.4942 14.6253Z" fill="white"/>
<path d="M14.4942 16.1331C14.7832 16.1331 15.0176 16.364 15.0176 16.6488C15.0176 16.9337 14.7832 17.1646 14.4942 17.1646C14.2049 17.1646 13.9705 16.9337 13.9705 16.6488C13.9705 16.364 14.2049 16.1331 14.4942 16.1331Z" fill="white"/>
<path d="M14.4942 17.6009C14.7832 17.6009 15.0176 17.8318 15.0176 18.1166C15.0176 18.4014 14.7832 18.6323 14.4942 18.6323C14.2049 18.6323 13.9705 18.4014 13.9705 18.1166C13.9705 17.8318 14.2049 17.6009 14.4942 17.6009Z" fill="white"/>
<path d="M21.5395 11.6899H22.546C22.8282 11.6899 23.0698 11.4519 23.0698 11.1742C23.0698 10.8966 22.8282 10.6585 22.546 10.6585H21.5395C21.2577 10.6585 21.0161 10.8966 21.0161 11.1742C21.0161 11.4519 21.2577 11.6899 21.5395 11.6899Z" fill="white"/>
<path d="M20.01 22.0834C18.3591 22.0834 16.99 20.7347 16.99 19.1082V15.9347H19.5265V19.1082C19.5265 19.3859 19.7681 19.6239 20.0502 19.6239C20.332 19.6239 20.5736 19.3859 20.5736 19.1082V15.9347H23.11V19.1082C23.0293 20.7347 21.6605 22.0834 20.01 22.0834ZM23.0293 13.9512V14.9429H16.99V13.9512H23.0293ZM2.89885 9.34954C3.01965 9.58756 3.10016 9.82557 3.22079 9.98425C3.01965 9.86524 2.81814 9.70656 2.61695 9.54789C2.69751 9.46855 2.77802 9.38921 2.89885 9.34954ZM2.89885 3.08177C2.77802 3.00243 2.69751 2.92309 2.57672 2.84375C2.77802 2.68508 2.97937 2.5264 3.18072 2.40739C3.10016 2.64541 2.97937 2.88342 2.89885 3.08177ZM7.93133 3.08177C7.85094 2.84375 7.73015 2.64541 7.60936 2.44706C7.8107 2.56607 8.01201 2.72475 8.21336 2.88342C8.13264 2.96276 8.05229 3.0421 7.93133 3.08177ZM7.93133 9.34954C8.05229 9.42888 8.13264 9.50822 8.25359 9.58756C8.05229 9.74623 7.85094 9.90491 7.64963 10.0239C7.73015 9.7859 7.85094 9.54789 7.93133 9.34954ZM4.91185 8.59582V10.4206C4.50931 10.1826 4.06638 9.62723 3.78468 8.87351C4.14694 8.71483 4.50931 8.63549 4.91185 8.59582ZM4.91185 6.73136V7.60408C4.42864 7.64375 3.94559 7.76276 3.50266 7.92144C3.4223 7.56442 3.38202 7.16772 3.34175 6.73136H4.91185ZM4.91185 4.82723V5.69995H3.34175C3.38202 5.26359 3.4223 4.86689 3.50266 4.50987C3.94559 4.70822 4.42864 4.78756 4.91185 4.82723ZM4.91185 3.83549C4.50931 3.79582 4.14694 3.71648 3.78468 3.5578C4.06638 2.80409 4.46892 2.24871 4.91185 2.0107V3.83549ZM5.9185 3.83549V2.0107C6.321 2.24871 6.76377 2.80409 7.04579 3.5578C6.68337 3.71648 6.321 3.79582 5.9185 3.83549ZM5.9185 5.73962V4.86689C6.40151 4.82723 6.88472 4.70822 7.32765 4.54954C7.40801 4.90656 7.44829 5.30326 7.48856 5.73962H5.9185ZM7.04579 8.87351C6.76377 9.62723 6.321 10.1826 5.9185 10.4206V8.59582C6.321 8.63549 6.68337 8.71483 7.04579 8.87351ZM5.9185 7.60408V6.73136H7.48856C7.44829 7.16772 7.40801 7.56442 7.32765 7.92144C6.88472 7.72309 6.40151 7.64375 5.9185 7.60408ZM8.93799 8.83384C8.73664 8.63549 8.49522 8.47681 8.25359 8.3578C8.37427 7.8421 8.45494 7.28673 8.49522 6.73136H9.82369C9.7029 7.52475 9.42116 8.2388 8.93799 8.83384ZM9.78342 5.73962H8.45494C8.41466 5.18425 8.33399 4.62888 8.21336 4.11318C8.45494 3.9545 8.69637 3.79582 8.89787 3.63714C9.42116 4.19251 9.7029 4.90656 9.78342 5.73962ZM1.8922 3.59747C2.09351 3.79582 2.33509 3.9545 2.57672 4.07351C2.45608 4.58921 2.37537 5.14458 2.33509 5.69995H1.0065C1.12729 4.90656 1.40915 4.19251 1.8922 3.59747ZM1.04689 6.73136H2.37537C2.4158 7.28673 2.49616 7.8421 2.61695 8.3578C2.37537 8.51648 2.13378 8.67516 1.9326 8.83384C1.40915 8.2388 1.12729 7.52475 1.04689 6.73136ZM23.5526 12.9595H20.533V4.27185C20.533 1.93136 18.6007 0.0668951 16.2653 0.0668951C13.9302 0.0668951 11.9576 1.97103 11.9576 4.27185V20.1C11.9576 21.7264 10.5887 23.0752 8.93799 23.0752C7.28738 23.0752 5.9185 21.7264 5.9185 20.1V11.5314C7.24698 11.4123 8.41466 10.8173 9.30021 9.94458C9.30021 9.94458 9.34048 9.90491 9.38092 9.86524C11.3536 7.80243 11.3536 4.62888 9.38092 2.56607C9.34048 2.5264 9.34048 2.5264 9.30021 2.48673C7.16642 0.344581 3.66373 0.344581 1.52994 2.48673C1.52994 2.48673 1.48967 2.5264 1.44943 2.56607C0.523288 3.51813 0 4.82723 0 6.21566C0 8.99251 2.17406 11.2933 4.91185 11.5314V20.1C4.91185 22.2818 6.72349 24.0669 8.93799 24.0669C11.1523 24.0669 12.9641 22.2818 12.9641 20.1V4.27185C12.9641 2.48673 14.4134 1.05863 16.2251 1.05863C18.0368 1.05863 19.4863 2.48673 19.4863 4.27185V12.9595H16.4667C16.1849 12.9595 15.9433 13.1975 15.9433 13.4752V19.1479C15.9433 21.3297 17.755 23.1148 19.9694 23.1148C22.1839 23.1148 23.9956 21.3297 23.9956 19.1479V13.4752C24.0358 13.1975 23.7942 12.9595 23.5526 12.9595Z" fill="white"/>
<path d="M2.41576 16.1331C2.13374 16.1331 1.89216 15.8951 1.89216 15.6174C1.89216 15.3398 2.13374 15.1017 2.41576 15.1017C2.69747 15.1017 2.93905 15.3398 2.93905 15.6174C2.93905 15.8951 2.65719 16.1331 2.41576 16.1331ZM2.41576 14.1497C1.57018 14.1497 0.88562 14.8241 0.88562 15.6571C0.88562 16.4902 1.57018 17.1646 2.41576 17.1646C3.26103 17.1646 3.94554 16.4902 3.94554 15.6571C3.94554 14.8241 3.22075 14.1497 2.41576 14.1497Z" fill="white"/>
<path d="M22.2642 1.77295C22.3852 1.77295 22.5058 1.89196 22.5058 2.01097C22.5058 2.12998 22.4254 2.24899 22.2642 2.24899C22.103 2.24899 22.0226 2.12998 22.0226 2.01097C22.0226 1.89196 22.1436 1.77295 22.2642 1.77295ZM22.2642 3.24072C22.9488 3.24072 23.5124 2.68535 23.5124 2.01097C23.5124 1.33659 22.9488 0.781219 22.2642 0.781219C21.5797 0.781219 21.0161 1.33659 21.0161 2.01097C21.0161 2.68535 21.5797 3.24072 22.2642 3.24072Z" fill="white"/>
</svg>
