<svg width="24" height="24" viewBox="0 0 24 24" fill="none" xmlns="http://www.w3.org/2000/svg">
<path d="M10.5424 3.62423C10.3426 3.82022 10.3426 4.13381 10.5424 4.32981C10.7421 4.52581 11.0615 4.52581 11.2612 4.32981C11.6607 3.93782 12.2994 3.93782 12.6587 4.32981C12.8584 4.52581 13.1782 4.52581 13.3779 4.32981C13.5777 4.13381 13.5777 3.82022 13.3779 3.62423C12.5789 2.84024 11.3011 2.84024 10.5424 3.62423Z" fill="#0B0103"/>
<path d="M14.4161 3.27146C14.6154 3.07547 14.6154 2.76187 14.4161 2.56588C13.0581 1.23311 10.8218 1.23311 9.46426 2.56588C9.26452 2.76187 9.26452 3.07547 9.46426 3.27146C9.66362 3.46746 9.98337 3.46746 10.1831 3.27146C11.1416 2.33068 12.7388 2.33068 13.6968 3.27146C13.8966 3.46746 14.2163 3.46746 14.4161 3.27146Z" fill="#0B0103"/>
<path d="M9.10469 2.21311C10.6624 0.684346 13.1782 0.684346 14.7355 2.21311C14.9353 2.40911 15.2546 2.40911 15.454 2.21311C15.6537 2.01712 15.6537 1.70352 15.454 1.50753C13.4976 -0.413228 10.3427 -0.413228 8.38584 1.50753C8.18649 1.70352 8.18649 2.01712 8.38584 2.21311C8.58559 2.40911 8.90534 2.40911 9.10469 2.21311Z" fill="#0B0103"/>
<path d="M11.9402 22.0872V14.7569C11.9402 14.4825 11.7006 14.2473 11.4211 14.2473H6.46926C6.18978 14.2473 5.95016 14.4825 5.95016 14.7569V22.1264H4.95182V12.3266H18.9282V14.2865H13.4576C13.1781 14.2865 12.9381 14.5217 12.9381 14.7961C12.9381 15.0705 13.1781 15.3057 13.4576 15.3057H18.9282V22.1656H11.9402V22.0872ZM9.46429 22.0872V15.2273H10.9418V22.0872H9.46429ZM6.9485 22.0872V15.2273H8.42607V22.0872H6.9485ZM3.43438 10.6018L11.9402 5.97634L20.4058 10.6018V11.3074C19.647 11.3074 3.87335 11.3074 3.43438 11.3074V10.6018ZM1.9568 15.7369C2.11628 15.9329 2.4759 16.6385 2.4759 17.9321C2.4759 19.1864 2.15655 19.9312 1.9568 20.1272C1.79732 19.9312 1.47756 19.2256 1.47756 17.9321C1.47756 16.6777 1.79732 15.9329 1.9568 15.7369ZM21.9232 15.7369C22.0831 15.9329 22.4427 16.6385 22.4427 17.9321C22.4427 19.1864 22.1229 19.9312 21.9232 20.1272C21.7637 19.9312 21.4045 19.2256 21.4045 17.9321C21.4045 16.6385 21.7637 15.9329 21.9232 15.7369ZM23.4008 22.0872H22.4024V20.9504C23.88 20.0096 23.7205 14.7177 21.8837 14.7177C20.0465 14.7177 19.9265 20.0096 21.3642 20.9504V22.0872H19.8866V12.2874H20.9252C21.2047 12.2874 21.444 12.0522 21.444 11.817V10.3274C21.444 10.1314 21.3642 9.97464 21.2047 9.89624L12.1794 4.99636C12.0199 4.91796 11.8601 4.91796 11.7006 4.99636L2.71553 9.89624C2.55605 9.97464 2.4759 10.1314 2.4759 10.3274V11.817C2.4759 12.0914 2.71552 12.2874 2.995 12.2874H3.99334V22.0872H2.51578V20.9504C3.99336 20.0096 3.83387 14.7177 1.99707 14.7177C0.15987 14.7177 0.0402629 19.9704 1.51744 20.9504V22.0872H0.519101C0.239613 22.0872 0 22.3224 0 22.5967C0 22.8711 0.239613 23.0671 0.519101 23.0671C0.678977 23.0671 22.8019 23.0671 23.4805 23.0671C23.76 23.0671 24 22.8319 24 22.5967C23.9203 22.3224 23.6803 22.0872 23.4008 22.0872Z" fill="#0B0103"/>
<path d="M14.7752 19.6567L16.9317 17.8143V19.6567H14.7752ZM16.0933 17.1871L13.9367 19.0295V17.1871H16.0933ZM17.9301 16.5991C17.8898 16.4031 17.6901 16.2463 17.4907 16.2071C17.4508 16.2071 14.5754 16.2071 13.4575 16.2071C13.178 16.2071 12.938 16.4423 12.938 16.7167C12.938 20.2838 12.938 20.1662 12.938 20.2838C12.938 20.323 12.938 20.323 12.938 20.323C12.938 20.323 12.938 20.323 12.938 20.3622C12.938 20.3622 12.938 20.4014 12.9783 20.4014C12.9783 20.4014 12.9782 20.4406 13.0181 20.4406L13.058 20.4798C13.1377 20.5582 13.2175 20.5974 13.2976 20.6366C13.3777 20.6758 13.1377 20.6366 17.4106 20.6366C17.6901 20.6366 17.9301 20.4014 17.9301 20.127C17.9301 16.4815 17.9301 16.6775 17.9301 16.5991Z" fill="#0B0103"/>
<path d="M2.95512 5.93677C3.23461 5.93677 3.43436 6.17197 3.43436 6.44636C3.43436 6.72076 3.19474 6.95595 2.95512 6.95595C2.67563 6.95595 2.43602 6.72076 2.43602 6.44636C2.47589 6.13277 2.67563 5.93677 2.95512 5.93677ZM2.95512 7.89673C3.79358 7.89673 4.4323 7.23034 4.4323 6.40716C4.4323 5.58398 3.75371 4.9176 2.95512 4.9176C2.15653 4.9176 1.47754 5.58398 1.47754 6.40716C1.47754 7.23034 2.11626 7.89673 2.95512 7.89673Z" fill="#0B0103"/>
<path d="M19.1681 3.97713C19.5672 3.97713 19.9264 4.29072 19.9264 4.72191C19.9264 5.1139 19.6071 5.46669 19.1681 5.46669C18.7686 5.46669 18.4094 5.1531 18.4094 4.72191C18.4488 4.29072 18.7686 3.97713 19.1681 3.97713ZM19.1681 6.40747C20.1262 6.40747 20.9252 5.62349 20.9252 4.68271C20.9252 3.74193 20.1262 2.95795 19.1681 2.95795C18.2096 2.95795 17.4106 3.74193 17.4106 4.68271C17.4106 5.62349 18.2096 6.40747 19.1681 6.40747Z" fill="#0B0103"/>
</svg>
