<svg width="24" height="25" viewBox="0 0 24 25" fill="none" xmlns="http://www.w3.org/2000/svg">
<path d="M2.8311 22.9323C2.52625 22.9323 2.26489 22.6705 2.26489 22.3651C2.26489 22.0596 2.52625 21.7978 2.8311 21.7978C3.44081 21.7978 20.2108 21.7978 21.1254 21.7978C21.4303 21.7978 21.6916 22.0596 21.6916 22.3651C21.6916 22.6705 21.4303 22.9323 21.1254 22.9323H2.8311ZM4.70415 20.2269C4.70415 19.9214 4.96552 19.6596 5.27038 19.6596C5.53174 19.6596 18.5992 19.6596 18.7296 19.6596C19.0349 19.6596 19.2958 19.9214 19.2958 20.2269C19.2958 20.5323 19.0349 20.7942 18.7296 20.7942H5.22689C4.96552 20.7505 4.70415 20.4887 4.70415 20.2269ZM6.53371 13.6814C6.53371 10.6705 8.97298 8.22684 11.9785 8.22684C12.5882 8.22684 13.1979 8.31411 13.7206 8.53229C11.2379 10.6268 10.7591 13.725 12.3268 16.1687C12.4138 16.3432 12.5882 16.4305 12.8061 16.4305C13.2414 16.4305 13.5027 15.9505 13.2853 15.6014C11.9785 13.5069 12.4138 10.8014 14.8965 9.05593C16.4647 10.0159 17.4667 11.7178 17.4667 13.6814V18.5687H10.933V17.4778C10.933 17.1723 10.6716 16.9105 10.3668 16.9105C10.0619 16.9105 9.80057 17.1723 9.80057 17.4778V18.5687H8.71162V15.296C8.71162 14.9905 8.45024 14.7287 8.14539 14.7287C7.84053 14.7287 7.62266 14.9905 7.62266 15.296V18.5687H6.53371V13.6814ZM23.4342 22.9323H22.6936C23.0854 21.8851 22.2578 20.7505 21.1689 20.7505H20.2978C20.6897 19.7032 19.8625 18.5687 18.7731 18.5687H18.5117V13.6814C18.5117 10.0596 15.5937 7.13593 11.9785 7.13593C8.36327 7.13593 5.44476 10.0596 5.44476 13.6814V18.5687H5.22689C4.09445 18.5687 3.31034 19.7032 3.70218 20.7505H2.8311C1.69866 20.7505 0.914569 21.8851 1.30683 22.9323H0.566221C0.261367 22.9323 0 23.1942 0 23.4996C0 23.8051 0.261367 24.0669 0.566221 24.0669C3.04898 24.0669 20.5157 24.0669 23.4342 24.0669C23.7391 24.0669 24 23.8051 24 23.4996C23.9565 23.1942 23.6951 22.9323 23.4342 22.9323Z" fill="#0B0103"/>
<path d="M16.9004 6.56882C17.213 6.56882 17.4667 6.82278 17.4667 7.13609C17.4667 7.4494 17.213 7.70337 16.9004 7.70337C16.5874 7.70337 16.3342 7.4494 16.3342 7.13609C16.3342 6.82278 16.5874 6.56882 16.9004 6.56882Z" fill="#0B0103"/>
<path d="M22.3452 12.5471C22.6578 12.5471 22.9114 12.8011 22.9114 13.1144C22.9114 13.4277 22.6578 13.6816 22.3452 13.6816C22.0322 13.6816 21.7786 13.4277 21.7786 13.1144C21.7786 12.8011 22.0322 12.5471 22.3452 12.5471Z" fill="#0B0103"/>
<path d="M13.0674 0.546847C13.38 0.546847 13.6336 0.800812 13.6336 1.11412C13.6336 1.42743 13.38 1.6814 13.0674 1.6814C12.7543 1.6814 12.5007 1.42743 12.5007 1.11412C12.5007 0.800812 12.7543 0.546847 13.0674 0.546847Z" fill="#0B0103"/>
<path d="M2.17804 1.63791C2.49064 1.63791 2.74425 1.89188 2.74425 2.20519C2.74425 2.5185 2.49064 2.77246 2.17804 2.77246C1.86543 2.77246 1.61182 2.5185 1.61182 2.20519C1.61182 1.89188 1.86543 1.63791 2.17804 1.63791Z" fill="#0B0103"/>
<path d="M6.53375 6.00144C6.84635 6.00144 7.09997 6.2554 7.09997 6.56871C7.09997 6.88202 6.84635 7.13599 6.53375 7.13599C6.22071 7.13599 5.96753 6.88202 5.96753 6.56871C5.96753 6.2554 6.22071 6.00144 6.53375 6.00144Z" fill="#0B0103"/>
<path d="M0.566221 15.2961C0.878827 15.2961 1.13244 15.5501 1.13244 15.8634C1.13244 16.1767 0.878827 16.4307 0.566221 16.4307C0.253616 16.4307 0 16.1767 0 15.8634C0 15.5501 0.253616 15.2961 0.566221 15.2961Z" fill="#0B0103"/>
<path d="M17.5102 5.95749C17.815 5.95749 18.0764 6.21931 18.0764 6.52477C18.0764 6.83022 18.3377 7.09204 18.6426 7.09204C18.9474 7.09204 19.2088 6.83022 19.2088 6.52477C19.2088 5.6084 18.4682 4.86658 17.5536 4.86658C17.2488 4.86658 16.9874 5.1284 16.9874 5.43385C16.9439 5.69567 17.2053 5.95749 17.5102 5.95749Z" fill="#0B0103"/>
<path d="M17.5102 4.29973C18.7296 4.29973 19.6881 5.25973 19.6881 6.48155C19.6881 6.78701 19.9494 7.04883 20.2543 7.04883C20.5591 7.04883 20.8205 6.78701 20.8205 6.48155C20.8205 4.69246 19.3397 3.20881 17.5536 3.20881C17.2488 3.20881 16.9874 3.47063 16.9874 3.77609C16.9439 4.08154 17.2053 4.29973 17.5102 4.29973Z" fill="#0B0103"/>
<path d="M17.5102 2.68475C19.6011 2.68475 21.3432 4.38658 21.3432 6.52477C21.3432 6.83022 21.6046 7.09204 21.9094 7.09204C22.2143 7.09204 22.4757 6.83022 22.4757 6.52477C22.4757 3.8193 20.2978 1.59384 17.5536 1.59384C17.2488 1.59384 16.9874 1.85566 16.9874 2.16111C16.9439 2.42293 17.2053 2.68475 17.5102 2.68475Z" fill="#0B0103"/>
<path d="M2.17788 7.13605C2.48273 7.13605 2.7441 7.39786 2.7441 7.70332C2.7441 8.00878 2.48273 8.27059 2.17788 8.27059C1.87303 8.27059 1.61166 8.00878 1.61166 7.70332C1.61166 7.39786 1.87303 7.13605 2.17788 7.13605ZM2.17788 9.31787C3.09244 9.31787 3.83305 8.57605 3.83305 7.65968C3.83305 6.74332 3.09244 6.0015 2.17788 6.0015C1.26332 6.0015 0.522705 6.74332 0.522705 7.65968C0.522705 8.57605 1.26332 9.31787 2.17788 9.31787Z" fill="#0B0103"/>
<path d="M8.45016 1.11427C8.58063 1.11427 8.71153 1.24518 8.71153 1.37609C8.71153 1.507 8.58063 1.63791 8.45016 1.63791C8.31927 1.63791 8.1888 1.507 8.1888 1.37609C8.1888 1.24518 8.27578 1.11427 8.45016 1.11427ZM8.45016 2.77246C9.19034 2.77246 9.80049 2.16155 9.80049 1.41973C9.80049 0.677908 9.19034 0.0669968 8.45016 0.0669968C7.70956 0.0669968 7.09985 0.677908 7.09985 1.41973C7.09985 2.16155 7.70956 2.77246 8.45016 2.77246Z" fill="#0B0103"/>
<path d="M21.5174 17.4779C21.3869 17.4779 21.256 17.347 21.256 17.2161C21.256 17.0852 21.3869 16.9543 21.5174 16.9543C21.6483 16.9543 21.7787 17.0852 21.7787 17.2161C21.7787 17.347 21.6483 17.4779 21.5174 17.4779ZM21.5174 15.8634C20.7772 15.8634 20.1675 16.4743 20.1675 17.2161C20.1675 17.9579 20.7772 18.5688 21.5174 18.5688C22.258 18.5688 22.8681 17.9579 22.8681 17.2161C22.8681 16.4743 22.258 15.8634 21.5174 15.8634Z" fill="#0B0103"/>
<path d="M8.18877 13.1142C8.50138 13.1142 8.755 13.3682 8.755 13.6815C8.755 13.9948 8.50138 14.2488 8.18877 14.2488C7.87617 14.2488 7.62256 13.9948 7.62256 13.6815C7.62256 13.3682 7.87617 13.1142 8.18877 13.1142Z" fill="#0B0103"/>
</svg>
