<svg width="16" height="16" viewBox="0 0 16 16" fill="none" xmlns="http://www.w3.org/2000/svg">
<path d="M1.33398 4L5.94266 6.61131C7.64172 7.574 8.35958 7.574 10.0587 6.61131L14.6673 4" stroke="#02000E" stroke-linejoin="round"/>
<path d="M1.3445 8.98439C1.38808 11.0281 1.40987 12.0499 2.16396 12.8069C2.91804 13.5639 3.96754 13.5902 6.06654 13.6429C7.36018 13.6755 8.64112 13.6755 9.93478 13.6429C12.0338 13.5902 13.0833 13.5639 13.8374 12.8069C14.5915 12.0499 14.6133 11.0281 14.6568 8.98439C14.6709 8.32725 14.6709 7.67405 14.6568 7.01692C14.6133 4.97322 14.5915 3.95138 13.8374 3.19443C13.0833 2.43747 12.0338 2.41111 9.93478 2.35837C8.64112 2.32586 7.36018 2.32586 6.06653 2.35836C3.96754 2.41109 2.91804 2.43746 2.16395 3.19442C1.40986 3.95137 1.38808 4.97322 1.34449 7.01692C1.33048 7.67405 1.33048 8.32725 1.3445 8.98439Z" stroke="#02000E" stroke-linejoin="round"/>
</svg>
