<svg width="12" height="14" viewBox="0 0 12 14" fill="none" xmlns="http://www.w3.org/2000/svg">
<path d="M11.5 6.00041C11.5 7.41103 11.0063 8.70041 10.1106 9.63228C9.27438 10.5004 8.14063 11.0004 7 11.0004C5.8825 11.0004 5.13625 10.6342 4.66063 10.2504L3.98688 13.1148C3.96109 13.2245 3.89896 13.3224 3.81057 13.3924C3.72219 13.4624 3.61275 13.5004 3.5 13.5004C3.4613 13.5004 3.42272 13.496 3.385 13.4873C3.32083 13.4726 3.2602 13.4453 3.20659 13.4071C3.15298 13.3689 3.10745 13.3204 3.0726 13.2646C3.03776 13.2087 3.01429 13.1465 3.00355 13.0815C2.99281 13.0166 2.995 12.9501 3.01 12.886L5.01 4.38603C5.04033 4.25691 5.12072 4.14512 5.23348 4.07526C5.34623 4.0054 5.48212 3.9832 5.61125 4.01353C5.74038 4.04387 5.85217 4.12425 5.92202 4.23701C5.99188 4.34977 6.01408 4.48566 5.98375 4.61478L4.9275 9.10228C5.125 9.37541 5.70625 10.0004 7 10.0004C8.72063 10.0004 10.5 8.50416 10.5 6.00041C10.4997 5.31032 10.3408 4.62954 10.0354 4.01071C9.72997 3.39188 9.28634 2.85158 8.73879 2.43158C8.19123 2.01158 7.55441 1.72314 6.87758 1.58856C6.20074 1.45398 5.50202 1.47687 4.83545 1.65546C4.16887 1.83405 3.5523 2.16355 3.0334 2.61848C2.51451 3.07341 2.10719 3.6416 1.84296 4.27909C1.57872 4.91658 1.46464 5.6063 1.50953 6.29493C1.55443 6.98355 1.7571 7.65262 2.10188 8.25041C2.16407 8.36494 2.17908 8.49923 2.14372 8.62467C2.10836 8.75011 2.02542 8.85678 1.91256 8.92197C1.79971 8.98716 1.66586 9.0057 1.53954 8.97366C1.41321 8.94161 1.30439 8.86151 1.23625 8.75041C0.814645 8.01979 0.566742 7.20199 0.511716 6.36025C0.456689 5.51851 0.596013 4.67539 0.918913 3.8961C1.24181 3.11682 1.73963 2.42224 2.37387 1.8661C3.00812 1.30996 3.76178 0.907163 4.57657 0.688852C5.39137 0.470541 6.24546 0.442571 7.0728 0.607106C7.90013 0.771641 8.67853 1.12427 9.3478 1.63772C10.0171 2.15118 10.5593 2.81169 10.9325 3.56818C11.3057 4.32468 11.4998 5.15687 11.5 6.00041Z" fill="url(#paint0_linear_95_4119)"/>
<defs>
<linearGradient id="paint0_linear_95_4119" x1="0.5" y1="7.7334" x2="11.5011" y2="7.63542" gradientUnits="userSpaceOnUse">
<stop stop-color="#6700EB"/>
<stop offset="1" stop-color="#8436FA"/>
</linearGradient>
</defs>
</svg>
