<svg width="16" height="16" viewBox="0 0 16 16" fill="none" xmlns="http://www.w3.org/2000/svg">
<path fill-rule="evenodd" clip-rule="evenodd" d="M4.12186 6.88952C3.47002 6.88952 3.33398 7.01745 3.33398 7.63025V8.74138C3.33398 9.35425 3.47002 9.48212 4.12186 9.48212H5.69762V13.9266C5.69762 14.5394 5.83366 14.6673 6.4855 14.6673H8.06125C8.71312 14.6673 8.84912 14.5394 8.84912 13.9266V9.48212H10.6185C11.1129 9.48212 11.2403 9.39178 11.3761 8.94492L11.7137 7.83378C11.9463 7.06825 11.803 6.88952 10.9561 6.88952H8.84912V5.03769C8.84912 4.62859 9.20185 4.29694 9.63698 4.29694H11.8794C12.5312 4.29694 12.6673 4.16904 12.6673 3.5562V2.07472C12.6673 1.46188 12.5312 1.33398 11.8794 1.33398H9.63698C7.46132 1.33398 5.69762 2.99219 5.69762 5.03769V6.88952H4.12186Z" stroke="url(#paint0_linear_95_4116)" stroke-linejoin="round"/>
<defs>
<linearGradient id="paint0_linear_95_4116" x1="3.33398" y1="8.75196" x2="12.6685" y2="8.68319" gradientUnits="userSpaceOnUse">
<stop stop-color="#6700EB"/>
<stop offset="1" stop-color="#8436FA"/>
</linearGradient>
</defs>
</svg>
