<svg width="16" height="16" viewBox="0 0 16 16" fill="none" xmlns="http://www.w3.org/2000/svg">
<path fill-rule="evenodd" clip-rule="evenodd" d="M3.33333 0.833008C2.8471 0.833008 2.38079 1.02616 2.03697 1.36998C1.69315 1.7138 1.5 2.18011 1.5 2.66634C1.5 3.15257 1.69315 3.61889 2.03697 3.9627C2.38079 4.30652 2.8471 4.49967 3.33333 4.49967C3.81956 4.49967 4.28588 4.30652 4.6297 3.9627C4.97351 3.61889 5.16667 3.15257 5.16667 2.66634C5.16667 2.18011 4.97351 1.7138 4.6297 1.36998C4.28588 1.02616 3.81956 0.833008 3.33333 0.833008ZM2.5 2.66634C2.5 2.44533 2.5878 2.23337 2.74408 2.07709C2.90036 1.92081 3.11232 1.83301 3.33333 1.83301C3.55435 1.83301 3.76631 1.92081 3.92259 2.07709C4.07887 2.23337 4.16667 2.44533 4.16667 2.66634C4.16667 2.88735 4.07887 3.09932 3.92259 3.2556C3.76631 3.41188 3.55435 3.49967 3.33333 3.49967C3.11232 3.49967 2.90036 3.41188 2.74408 3.2556C2.5878 3.09932 2.5 2.88735 2.5 2.66634ZM1.5 5.33301C1.5 5.2004 1.55268 5.07322 1.64645 4.97945C1.74021 4.88569 1.86739 4.83301 2 4.83301H4.66667C4.79928 4.83301 4.92645 4.88569 5.02022 4.97945C5.11399 5.07322 5.16667 5.2004 5.16667 5.33301V13.9997C5.16667 14.1323 5.11399 14.2595 5.02022 14.3532C4.92645 14.447 4.79928 14.4997 4.66667 14.4997H2C1.86739 14.4997 1.74021 14.447 1.64645 14.3532C1.55268 14.2595 1.5 14.1323 1.5 13.9997V5.33301ZM2.5 5.83301V13.4997H4.16667V5.83301H2.5ZM6.16667 5.33301C6.16667 5.2004 6.21935 5.07322 6.31311 4.97945C6.40688 4.88569 6.53406 4.83301 6.66667 4.83301H9.33333C9.46594 4.83301 9.59312 4.88569 9.68689 4.97945C9.78065 5.07322 9.83333 5.2004 9.83333 5.33301V5.62234L10.1233 5.49767C10.6233 5.28399 11.1538 5.15014 11.6953 5.10101C13.5453 4.93301 15.1667 6.38634 15.1667 8.25301V13.9997C15.1667 14.1323 15.114 14.2595 15.0202 14.3532C14.9265 14.447 14.7993 14.4997 14.6667 14.4997H12C11.8674 14.4997 11.7402 14.447 11.6464 14.3532C11.5527 14.2595 11.5 14.1323 11.5 13.9997V9.33301C11.5 9.11199 11.4122 8.90003 11.2559 8.74375C11.0996 8.58747 10.8877 8.49967 10.6667 8.49967C10.4457 8.49967 10.2337 8.58747 10.0774 8.74375C9.92113 8.90003 9.83333 9.11199 9.83333 9.33301V13.9997C9.83333 14.1323 9.78065 14.2595 9.68689 14.3532C9.59312 14.447 9.46594 14.4997 9.33333 14.4997H6.66667C6.53406 14.4997 6.40688 14.447 6.31311 14.3532C6.21935 14.2595 6.16667 14.1323 6.16667 13.9997V5.33301ZM7.16667 5.83301V13.4997H8.83333V9.33301C8.83333 8.84678 9.02649 8.38046 9.3703 8.03665C9.71412 7.69283 10.1804 7.49967 10.6667 7.49967C11.1529 7.49967 11.6192 7.69283 11.963 8.03665C12.3068 8.38046 12.5 8.84678 12.5 9.33301V13.4997H14.1667V8.25301C14.1667 6.98367 13.0593 5.98101 11.7867 6.09701C11.3495 6.13678 10.9212 6.24476 10.5173 6.41701L9.53067 6.84034C9.45456 6.87303 9.37153 6.8863 9.28903 6.87896C9.20653 6.87162 9.12715 6.84391 9.05801 6.7983C8.98887 6.75269 8.93215 6.69062 8.89293 6.61767C8.85372 6.54472 8.83324 6.46317 8.83333 6.38034V5.83301H7.16667Z" fill="url(#paint0_linear_95_4120)"/>
<defs>
<linearGradient id="paint0_linear_95_4120" x1="1.5" y1="8.43643" x2="15.1676" y2="8.29258" gradientUnits="userSpaceOnUse">
<stop stop-color="#6700EB"/>
<stop offset="1" stop-color="#8436FA"/>
</linearGradient>
</defs>
</svg>
