<svg width="24" height="25" viewBox="0 0 24 25" fill="none" xmlns="http://www.w3.org/2000/svg">
<path d="M22.449 19.055C22.3671 21.2553 20.4897 23.0075 18.3673 22.9667C16.2858 22.9667 14.5714 21.4183 14.3265 19.3402C14.2857 19.0958 14.0815 18.892 13.8366 18.892H10.7347C10.4897 18.892 10.2448 19.0958 10.2448 19.3402C10.0003 21.4183 8.28591 22.9667 6.20394 22.9667C3.91861 22.9667 2.1227 21.1331 2.1227 18.8513C2.1227 16.6102 4.00011 14.8173 6.24469 14.8173C7.10209 14.8173 17.9187 14.8173 18.4081 14.8173C20.6119 14.8581 22.5305 16.6917 22.449 19.055ZM8.77534 13.3097C9.42857 13.3097 14.6121 13.3097 15.7144 13.3097C16.0001 13.3097 16.2858 13.5134 16.3265 13.8394H8.16325C8.20401 13.5134 8.48967 13.3097 8.77534 13.3097ZM13.143 12.291H11.3875C11.7551 11.5983 12.7347 11.5983 13.143 12.291ZM18.3262 13.8394H17.3469C17.3062 12.9837 16.5714 12.291 15.7144 12.291H14.2038C14 11.5576 13.4695 11.0278 12.7347 10.8241C12.694 9.64244 11.7551 8.70526 10.5716 8.70526H4.08161C3.79595 8.70526 3.55104 8.46078 3.55104 8.17555C3.55104 7.89032 3.79595 7.64583 4.08161 7.64583H17.8775C18.7345 7.64583 19.4285 6.95314 19.4285 6.09745C19.4285 5.24176 18.7345 4.54906 17.8775 4.54906H6.65301C6.36734 4.54906 6.12243 4.79354 6.12243 5.07877C6.12243 5.364 6.36734 5.60848 6.65301 5.60848H17.8775C18.1632 5.60848 18.4081 5.85296 18.4081 6.13819C18.4081 6.42342 18.1632 6.66791 17.8775 6.66791H4.08161C3.22461 6.66791 2.53062 7.36061 2.53062 8.21629C2.53062 9.07198 3.22461 9.76468 4.08161 9.76468H10.5716C11.1837 9.76468 11.6736 10.2536 11.7143 10.8649C10.9796 11.0686 10.449 11.5983 10.2448 12.3317H8.73458C7.87758 12.3317 7.14284 13.0244 7.10209 13.8801H6.12243C3.30612 13.8801 0.979638 16.162 0.979638 18.9328C0.938886 21.7443 3.26537 24.0669 6.08168 24.0669C8.53042 24.0669 10.6124 22.3555 11.0611 19.9922H13.306C13.7959 22.3555 15.8774 24.0669 18.2858 24.0669C21.0202 24.0669 23.306 21.8666 23.3875 19.1772C23.4286 18.3216 23.2245 17.5066 22.8573 16.7732C22.1222 14.9396 20.2859 13.8394 18.3262 13.8394Z" fill="white"/>
<path d="M7.38777 19.4218H6.85718C6.57152 19.4218 6.32661 19.6663 6.32661 19.9515V20.4405C6.32661 20.5627 6.20394 20.6849 6.08169 20.6849C5.95903 20.6849 5.83677 20.5627 5.83677 20.4405V19.9107C5.83677 19.6255 5.59186 19.381 5.3062 19.381H4.77561C4.65335 19.381 4.5307 19.2588 4.5307 19.1365C4.5307 19.0143 4.65335 18.8921 4.77561 18.8921H5.3062C5.59186 18.8921 5.83677 18.6476 5.83677 18.3624V17.8326C5.83677 17.7104 5.95903 17.5882 6.08169 17.5882C6.20394 17.5882 6.32661 17.7104 6.32661 17.8326V18.4031C6.32661 18.6883 6.57152 18.9328 6.85718 18.9328H7.38777C7.51043 18.9328 7.63268 19.0551 7.63268 19.1773C7.67343 19.2995 7.55118 19.4218 7.38777 19.4218ZM7.38777 17.9141C7.38777 17.2214 6.81643 16.651 6.12244 16.651C5.42845 16.651 4.85711 17.2214 4.85711 17.9141C4.16353 17.9141 3.5918 18.4846 3.5918 19.1773C3.5918 19.87 4.16353 20.4405 4.85711 20.4405C4.85711 21.1332 5.42845 21.7036 6.12244 21.7036C6.81643 21.7036 7.38777 21.1332 7.38777 20.4405C8.08176 20.4405 8.65309 19.87 8.65309 19.1773C8.69384 18.4846 8.08176 17.9141 7.38777 17.9141Z" fill="white"/>
<path d="M16.5715 19.4218C16.4488 19.4218 16.3266 19.2995 16.3266 19.1773C16.3266 19.055 16.4488 18.9328 16.5715 18.9328C16.6937 18.9328 16.8164 19.055 16.8164 19.1773C16.8571 19.2995 16.7349 19.4218 16.5715 19.4218ZM17.8775 19.1773C17.8775 18.4846 17.3062 17.9141 16.6122 17.9141C15.9182 17.9141 15.3469 18.4846 15.3469 19.1773C15.3469 19.87 15.9182 20.4404 16.6122 20.4404C17.3062 20.4404 17.8775 19.87 17.8775 19.1773Z" fill="white"/>
<path d="M20.1632 19.4218C20.0406 19.4218 19.9183 19.2995 19.9183 19.1773C19.9183 19.055 20.0406 18.9328 20.1632 18.9328C20.2859 18.9328 20.4077 19.055 20.4077 19.1773C20.4077 19.2995 20.2859 19.4218 20.1632 19.4218ZM20.1632 17.9141C19.4692 17.9141 18.8979 18.4846 18.8979 19.1773C18.8979 19.87 19.4692 20.4404 20.1632 20.4404C20.8572 20.4404 21.4285 19.87 21.4285 19.1773C21.4285 18.4846 20.8572 17.9141 20.1632 17.9141Z" fill="white"/>
<path d="M18.3674 16.8954C18.49 16.8954 18.6123 17.0177 18.6123 17.1399C18.6123 17.2622 18.49 17.3844 18.3674 17.3844C18.2447 17.3844 18.122 17.2622 18.122 17.1399C18.122 17.0177 18.2447 16.8954 18.3674 16.8954ZM18.3674 18.4031C19.0614 18.4031 19.6327 17.8326 19.6327 17.1399C19.6327 16.4472 19.0614 15.8768 18.3674 15.8768C17.6734 15.8768 17.102 16.4472 17.102 17.1399C17.102 17.8326 17.6734 18.4031 18.3674 18.4031Z" fill="white"/>
<path d="M18.3674 21.4591C18.2447 21.4591 18.122 21.3369 18.122 21.2146C18.122 21.0924 18.2447 20.9701 18.3674 20.9701C18.49 20.9701 18.6123 21.0924 18.6123 21.2146C18.6123 21.3369 18.49 21.4591 18.3674 21.4591ZM18.3674 19.9515C17.6734 19.9515 17.102 20.5219 17.102 21.2146C17.102 21.9073 17.6734 22.4778 18.3674 22.4778C19.0614 22.4778 19.6327 21.9073 19.6327 21.2146C19.6327 20.5219 19.0614 19.9515 18.3674 19.9515Z" fill="white"/>
<path d="M14.2857 17.3844H10.204C9.91837 17.3844 9.67346 17.6289 9.67346 17.9141C9.67346 18.1994 9.91837 18.4438 10.204 18.4438H14.2857C14.5713 18.4438 14.8163 18.1994 14.8163 17.9141C14.8163 17.6289 14.5713 17.3844 14.2857 17.3844Z" fill="white"/>
<path d="M11.7551 16.8953H12.7755C13.0611 16.8953 13.3061 16.6508 13.3061 16.3656C13.3061 16.0803 13.0611 15.8358 12.7755 15.8358H11.7551C11.4694 15.8358 11.2245 16.0803 11.2245 16.3656C11.2245 16.6508 11.4694 16.8953 11.7551 16.8953Z" fill="white"/>
<path d="M18.8571 4.26372C19.1428 4.22297 19.3877 4.42671 19.4285 4.71194C19.4692 4.95642 19.6734 5.16016 19.9183 5.16016C20.2447 5.16016 20.4489 4.87493 20.4077 4.5897C20.3262 3.73401 19.5507 3.16355 18.6937 3.24505C18.4081 3.28579 18.2043 3.53027 18.2447 3.8155C18.3262 4.10073 18.5715 4.30447 18.8571 4.26372Z" fill="white"/>
<path d="M18.6531 2.75623C19.755 2.63399 20.7758 3.40818 20.9388 4.5491C20.9796 4.79358 21.1833 4.99731 21.4287 4.99731C21.7551 4.99731 21.9592 4.71209 21.9185 4.42686C21.7143 2.75623 20.2041 1.57456 18.5304 1.7783C18.2448 1.81905 18.0406 2.06353 18.0818 2.34876C18.1221 2.59324 18.3674 2.79697 18.6531 2.75623Z" fill="white"/>
<path d="M18.49 1.24871C20.4489 1.00423 22.2448 2.38963 22.449 4.34548C22.4897 4.58997 22.6935 4.7937 22.9388 4.7937C23.2652 4.7937 23.469 4.50847 23.4286 4.22324C23.1429 1.69693 20.8572 -0.095944 18.3673 0.230032C18.0817 0.270779 17.8775 0.515262 17.9187 0.800491C17.959 1.08572 18.2043 1.24871 18.49 1.24871Z" fill="white"/>
<path d="M1.55139 11.802C1.83706 11.802 2.08198 12.0465 2.08198 12.3317C2.08198 12.6169 1.83706 12.8614 1.55139 12.8614C1.26532 12.8614 1.02041 12.6169 1.02041 12.3317C1.02041 12.0465 1.26532 11.802 1.55139 11.802ZM1.55139 13.8394C2.40839 13.8394 3.10197 13.1467 3.10197 12.291C3.10197 11.4353 2.40839 10.7426 1.55139 10.7426C0.693989 10.7426 0 11.4353 0 12.291C0 13.1467 0.693989 13.8394 1.55139 13.8394Z" fill="white"/>
<path d="M4.32652 1.08565C4.44917 1.08565 4.57143 1.20789 4.57143 1.33013C4.57143 1.45237 4.44917 1.57461 4.32652 1.57461C4.20426 1.57461 4.0816 1.49312 4.0816 1.33013C4.0816 1.16714 4.20426 1.08565 4.32652 1.08565ZM4.32652 2.63403C5.02051 2.63403 5.59184 2.06357 5.59184 1.37087C5.59184 0.678175 5.02051 0.0669697 4.32652 0.0669697C3.63252 0.0669697 3.06119 0.637428 3.06119 1.33013C3.06119 2.02283 3.63252 2.63403 4.32652 2.63403Z" fill="white"/>
<path d="M22.2041 9.23499C21.7957 9.23499 21.4286 8.90901 21.4286 8.46079C21.4286 8.01257 21.755 7.6866 22.2041 7.6866C22.6531 7.6866 22.9792 8.01257 22.9792 8.46079C22.9792 8.90901 22.612 9.23499 22.2041 9.23499ZM24 8.46079C24 7.48286 23.1833 6.66792 22.2041 6.66792C21.2244 6.66792 20.4078 7.48286 20.4078 8.46079C20.4078 9.43872 21.2244 10.2537 22.2041 10.2537C23.1833 10.2537 24 9.43872 24 8.46079Z" fill="white"/>
<path d="M9.71423 0.556055C10.0076 0.556055 10.2448 0.793203 10.2448 1.08577C10.2448 1.37833 10.0076 1.61548 9.71423 1.61548C9.4213 1.61548 9.18364 1.37833 9.18364 1.08577C9.18364 0.793203 9.4213 0.556055 9.71423 0.556055Z" fill="white"/>
<path d="M5.10208 4.63052C5.39501 4.63052 5.63267 4.86767 5.63267 5.16023C5.63267 5.45279 5.39501 5.68994 5.10208 5.68994C4.80915 5.68994 4.5715 5.45279 4.5715 5.16023C4.5715 4.86767 4.80915 4.63052 5.10208 4.63052Z" fill="white"/>
<path d="M5.10208 11.7614C5.39501 11.7614 5.63267 11.9985 5.63267 12.2911C5.63267 12.5837 5.39501 12.8208 5.10208 12.8208C4.80915 12.8208 4.5715 12.5837 4.5715 12.2911C4.5715 11.9985 4.80915 11.7614 5.10208 11.7614Z" fill="white"/>
<path d="M7.67344 10.2536C7.96637 10.2536 8.20403 10.4907 8.20403 10.7833C8.20403 11.0758 7.96637 11.313 7.67344 11.313C7.38052 11.313 7.14287 11.0758 7.14287 10.7833C7.14287 10.4907 7.38052 10.2536 7.67344 10.2536Z" fill="white"/>
<path d="M17.8775 8.70523C18.1709 8.70523 18.4081 8.94237 18.4081 9.23494C18.4081 9.5275 18.1709 9.76465 17.8775 9.76465C17.5842 9.76465 17.3469 9.5275 17.3469 9.23494C17.3469 8.94237 17.5842 8.70523 17.8775 8.70523Z" fill="white"/>
<path d="M21.9592 12.2912C22.2521 12.2912 22.4898 12.5283 22.4898 12.8209C22.4898 13.1134 22.2521 13.3506 21.9592 13.3506C21.6663 13.3506 21.4286 13.1134 21.4286 12.8209C21.4286 12.5283 21.6663 12.2912 21.9592 12.2912Z" fill="white"/>
<path d="M15.3061 2.59316C15.599 2.59316 15.8367 2.83031 15.8367 3.12288C15.8367 3.41544 15.599 3.65259 15.3061 3.65259C15.0128 3.65259 14.7751 3.41544 14.7751 3.12288C14.7751 2.83031 15.0128 2.59316 15.3061 2.59316Z" fill="white"/>
<path d="M12.2449 21.4591C12.5378 21.4591 12.7754 21.6963 12.7754 21.9888C12.7754 22.2814 12.5378 22.5186 12.2449 22.5186C11.9515 22.5186 11.7143 22.2814 11.7143 21.9888C11.7143 21.6963 11.9515 21.4591 12.2449 21.4591Z" fill="white"/>
<path d="M0.530576 21.9479C0.823909 21.9479 1.06116 22.185 1.06116 22.4776C1.06116 22.7702 0.823909 23.0073 0.530576 23.0073C0.237648 23.0073 0 22.7702 0 22.4776C0 22.185 0.237648 21.9479 0.530576 21.9479Z" fill="white"/>
<path d="M14.2857 15.8358C14.5787 15.8358 14.8163 16.073 14.8163 16.3656C14.8163 16.6581 14.5787 16.8953 14.2857 16.8953C13.9928 16.8953 13.7551 16.6581 13.7551 16.3656C13.7551 16.073 13.9928 15.8358 14.2857 15.8358Z" fill="white"/>
<path d="M10.204 15.8358C10.497 15.8358 10.7346 16.073 10.7346 16.3656C10.7346 16.6581 10.497 16.8953 10.204 16.8953C9.91111 16.8953 9.67346 16.6581 9.67346 16.3656C9.67346 16.073 9.91111 15.8358 10.204 15.8358Z" fill="white"/>
</svg>
